<svg version="1" xmlns="http://www.w3.org/2000/svg" width="413.333" height="413.333" viewBox="0 0 310.000000 310.000000"><path d="M1.2 56.6c-.8.9-.8 1.5.3 2.4 1 .8 1.5.9 1.5.2 0-.6.6-.9 1.4-.6 1.5.6 1.9 10.4.4 10.4-.5 0-.6.4-.3 1 1.2 2 3.5.9 5-2.3.8-1.7 1.3-2.5 1.1-1.5-1.4 5 7.1 7.2 10.5 2.7 1.5-2 1.9-2.1 1.9-.6 0 2.1 4.4 4 7.2 3.1 1.1-.3 2.6-2 3.3-3.7l1.4-3.2.1 2.8c0 4 4.2 5.4 9.2 3.2 1-.4 1.5-1.1 1.2-1.6-.3-.5-.1-.9.4-.9 1.5 0-.6-10.4-2.4-11.7-2.9-2.1-8.4.1-8.4 3.3 0 .8-.5 1.4-1.1 1.4-.5 0-.8-.4-.5-.8 1-1.6-2.3-4.9-4.6-4.8-2.7.2-7.1 3-6.1 3.9.3.4.1.7-.5.7-.7 0-1.2-.6-1.2-1.4 0-1.3-1.9-2.6-4.8-3.2-.7-.1-2.5.8-4 2.1l-2.6 2.3-1.1-2.1c-1.1-2.4-5.5-3-7.3-1.1zM41.9 63c.2 3.9-.1 5-1.4 5-3.1 0-2.1-9.3 1.1-10 0 0 .1 2.2.3 5zm-24.5-2.4c1 2.5.7 6.2-.5 7-2.1 1.2-2.8-1.7-2-7.9.2-1.3 1.9-.7 2.5.9zm12.1-.6c-.3.5-.2 1 .4 1 .7 0 .7.8.2 2.2-.4 1.3-.6 2.8-.4 3.5.2.6 0 1.4-.6 1.7-1.4.9-3.2-2.8-2.7-5.6.3-1.3.5-2.6.5-3.1.1-.4.8-.7 1.7-.7.8 0 1.2.4.9 1zM137.3 56.6c0 .8.3 1.4.7 1.4 1 0 1.1 8.3.1 9.8-1 1.7-2.1 1.7-3.1.2-.4-.7-1-.8-1.3-.3-1 1.5 1 3.5 3.7 3.8 1.7.2 3.1-.4 4.1-1.8l1.5-2.1 2.2 2c2.8 2.5 5.9 2.5 8.6.1 1.8-1.6 2.1-1.7 2.9-.3 1.3 2.4 5.9 2.7 8.7.5 2.1-1.6 2.6-1.7 3.3-.5 1.2 2.1 7 2.7 8.8.9.8-.8 1.5-1.9 1.5-2.5 0-.6 1.1.1 2.5 1.6 2.5 2.7 5.2 3 7.9.7 1.3-1.1 2-1.1 4.1.3 3.1 2 5.9 1.6 8.4-1.3 1.9-2.2 1.9-2.2 2.6-.2.3 1.2.9 2.1 1.3 2.2.4 0 1.7.2 3 .5 1.5.2 3.1-.4 4.6-1.9l2.3-2.3 1.6 2.2c2.1 2.8 6.4 2.5 8.8-.5 1.7-2.1 1.8-2.1 2.4-.1.3 1.1 1.2 2 1.8 2.1.7 0 2.1.2 3.2.4s3-.6 4.2-1.7c2.3-2.1 2.3-2.1 3.7-.2 1.8 2.4 6.7 2.6 8.4.2 1.6-2.2 3.2-2.3 3.2-.3 0 2.5 7.6 2.4 9.5-.2 1.1-1.5 1.4-1.4 3.3.5 1.4 1.4 2.9 1.9 4.8 1.6 3.2-.6 5.8-3 4.8-4.5-.4-.8-.3-.9.4-.5s1.2 1.4 1.2 2.2c0 1.9 4.7 3.7 6.7 2.6 1.2-.7.9-1.2-1.4-2.7-4.1-2.8-9.6-5.5-10.1-5.1-.2.2-.5 1.2-.6 2.3-.5 3.2-3.1 2-3.6-1.7-.4-2.7-1-3.5-2.5-3.5-1.1 0-2.6-.5-3.3-1.2-2.1-2-3-.7-2.7 3.7.2 2.2-.1 4-.7 4-.5 0-.6.4-.3 1s-.1.7-1 .4c-1-.4-1.5-1.4-1.2-2.5.3-1.1 0-1.9-.6-1.9-.8 0-.8-.3-.2-.8.6-.4 1-1.9 1.1-3.5.1-1.9-.4-2.7-1.6-2.7-1 0-2.1.7-2.4 1.6-.5 1.4-.8 1.3-2.4-.4-2.9-3.6-7.6-3.3-9.6.5-1.1 2-1.5 2.3-1.6 1.1 0-2.1-3.8-4.8-6.2-4.4-.9.1-2.6 1-3.8 2.1-2 1.8-2.1 1.8-3.4 0-.7-1-2.2-2-3.2-2.1-2.6-.4-6.4 2.2-6.4 4.4 0 1.4-.2 1.5-.9.2-.6-.8-.8-1.7-.6-2.1.3-.3-.7-1.1-2-1.7-2.9-1.3-8.5.2-8.5 2.3 0 .8-.5 1.7-1.2 2.1-.6.4-.8.3-.5-.3 1-1.6-1.5-4.3-4.4-4.8-1.8-.3-3.2.2-4.4 1.5-1.7 1.9-1.7 1.9-4.4 0-3.3-2.5-6.6-1.7-8.6 1.9-.9 1.7-1.4 2-1.5 1 0-2.3-2.6-4.2-6-4.4-2.8-.2-3.8 1-5.3 5.5-.4.9-.6.7-.6-.7-.1-1.3-1.1-2.9-2.3-3.7-2.7-1.7-7.8-1-7.8 1 0 1.9-1.5 1.8-3.5-.2-2.7-2.7-6.2-2.6-8.5.3-1.1 1.4-1.7 3-1.3 3.6.4.6.1.7-.6.3-.7-.5-1-1.4-.7-2.1.5-1.4-.8-2.8-3.5-3.7-.9-.4-1.6-.1-1.6.8zm73.4 4.6c.1 1.8 0 4.4-.3 5.6-.8 3.6-3.3.9-3-3.2.5-6 3-7.8 3.3-2.4zm24.5 2.2c.2 4.6-1.6 6.7-3.1 3.7-.9-1.6-.9-2.1.1-2.1s1-.2 0-.9c-1.5-.9-1.5-1.7 0-4.5 1.4-2.5 2.8-.8 3 3.8zM247 63c0 3.8-.4 5-1.5 5-1.6 0-2.1-5.2-.9-8.4 1.2-3.2 2.4-1.5 2.4 3.4zm-96.3-2c-.3 1.1-.1 2.2.3 2.5.9.6.1 4.5-.9 4.5-1.7-.1-2.7-1.8-2.5-4.8.2-4.3.2-4.2 2-4.2 1.1 0 1.5.6 1.1 2zm12.5 1.5c.3 2.3-.1 4-1 4.7-1.7 1.5-3-.2-2.6-3.5.1-1.2.3-2.8.3-3.5.1-.6.7-1.2 1.5-1.2s1.5 1.4 1.8 3.5zm11.9-2.8c.7 5.1.2 7.8-1.5 8.1-1.1.2-1.6 0-1.2-.6.3-.6.2-1.3-.2-1.6-.5-.3-.8-1.5-.6-2.8.1-1.3.3-2.6.3-3.1.1-.4.8-.7 1.6-.7s1.5.3 1.6.7zm12 .5c.6 6.1-1.5 11.5-2.5 6.7-1.3-5.7-1-7.9.9-7.9.8 0 1.6.6 1.6 1.2zm11.5 3.5c-.1 2.7-.4 4.7-.8 4.5-.5-.1-1.2-.2-1.6-.2-.5 0-.7-1.7-.6-3.8.3-5.2.3-5.2 1.7-5.2 1 0 1.4 1.4 1.3 4.7zm24.6-1.7c.3 1.6.1 3-.3 3-.5 0-.6.7-.3 1.5.4.9 0 1.5-1 1.5-1.6 0-1.8-.4-1.8-4 0-4.2.2-5 1.6-5 .8 0 1.6 1.3 1.8 3zM133.5 84.4c-1.9 2.1-3.2 3-2.9 2.2.5-1.2.2-1.5-.9-1-.9.3-1.3 1.2-1 2 .3.8 0 1.4-.5 1.4-.6 0-.9.9-.7 2 .2 1.1 0 2-.4 2-.5 0-1.1 1.2-1.4 2.6-.3 1.9-.1 2.4 1 2 .8-.3 1.8-.6 2.3-.6.5 0 1.2-1 1.6-2.3.7-2.2.7-2.1 1.6.6.6 1.5 1.4 2.5 1.9 2.1.5-.3.9-.1.9.5 0 .5 1.1.8 2.5.6 2.7-.3 5.6-3.3 4.8-5-.2-.5.6.2 1.9 1.6 3.2 3.7 6 4.3 8.6 2.1 1.2-1.1 1.9-2.2 1.5-2.6-.3-.3-.3-.6.1-.6s1.5.9 2.4 1.9c2.8 3.2 5.7 3.4 8.3.7 2.2-2.3 2.3-2.3 3.8-.6 2.7 3.1 5.5 3.3 8.4.6l2.6-2.4 1.7 2.3c1.9 2.6 4.5 2.7 7.3.3 1.9-1.6 2.1-1.6 4.3.2l2.4 1.8.1-6.4c0-3.5.3-6.7.6-7 .3-.3 1.7.2 3.1 1.1 2.6 1.7 2.6 1.7 2.6-.9 0-1.9-.6-2.7-2.6-3.2-2.9-.7-7.4.9-7.4 2.7 0 .7-.8.2-1.9-1-2.5-2.9-7.5-2.6-9.2.6-.7 1.2-1.6 2-2.1 1.7-.4-.3-.6-.9-.3-1.4.8-1.3-3.2-3.2-5.8-2.8-2.5.3-4.7 2-4.1 3 .2.4 0 .9-.5 1.2-.5.4-1.2-.3-1.6-1.4-.8-2.6-5-3.6-8-2-1.3.7-2.4 1.6-2.3 1.9 0 .3 0 1-.1 1.4-.1 1.2-3.1-1.9-3.1-3.2 0-1.9-5.5-1.2-7.9 1-1.9 1.8-2.5 1.9-3.2.8-.5-.8-.9-1.8-.9-2.3 0-.5-.3-.6-.7-.3-.3.4-1.2.2-2-.4-1-.9-2.1-.3-4.8 2.5zm5.5 6.3c0 2.9-1.5 5.2-2.6 4-1.1-1-1.2-5-.3-7.5.8-2.1 1.2-2.3 1.9-1.2.6.8 1 2.9 1 4.7zm12.2-2.2c.3 1.4.1 2.5-.6 2.5s-.6.4.2.9c1 .6 1 1-.2 2-1.1.9-1.6.9-2.2-.1-1.2-1.9-1.3-6.1-.2-7.5 1.4-1.7 2.5-.9 3 2.2zm12-1.8c.3 1 .1 2.8-.4 4-.5 1.6-.4 2.3.5 2.3.6 0 .4.5-.7 1.1-2.4 1.4-3.5-.1-3-4.3.6-4.8 2.8-6.7 3.6-3.1zm12.3 3.6c.1 1.8-.5 3.9-1.2 4.6-1 .9-1.3.9-1.3-.4 0-.8-.4-1.5-.9-1.5-.9 0-.5-5.5.5-7.2 1.1-1.7 2.8 1 2.9 4.5zm11.6-3.3c.4 7.1.3 7.5-1.6 7.9-1.1.2-1.7 0-1.3-.4.4-.4.3-1.7-.1-2.9-.9-2.4.3-6.6 1.9-6.6.5 0 1 .9 1.1 2zM292.5 82.2c-1.1.6-2.6 1.8-3.2 2.6-1.2 1.4-1.4 1.4-2.7-.3-.7-1-2.6-2-4.2-2.2-2.2-.3-3.4.2-5.1 2.4-1.3 1.5-2.3 2.2-2.3 1.5 0-4.4-6.6-5.3-9.7-1.4-1.8 2.1-2.3 2.3-2.3 1 0-1.9-2.8-3.8-5.6-3.8-1 0-3.1 1.2-4.7 2.7-1.7 1.6-2.8 2.3-2.4 1.8.8-1.6-1.5-4-4.4-4.3-3.3-.4-6.5 2.9-5.1 5.4.9 1.6 1.1 1.6 2.3-.3 1.3-2.2 3.9-2 3.9.3 0 .7.9 1.8 2 2.4 1.1.6 2 .8 2 .4s.8.3 1.9 1.5l1.9 2.1.7-2.7c.5-1.6.7-3.3.6-3.9-.1-.7.5-1.4 1.4-1.8 1-.4 1.5.1 1.7 1.7 0 1.2.2 2.9.3 3.7.1.8-.2 2.2-.6 3.1-.4.8-.4 2.1.1 2.8.6 1 1.2.9 2.9-.8 1.2-1.2 1.9-2.7 1.5-3.4-.4-.7-.3-.8.2-.4.5.5 1 1.3 1 1.8.1.5.2 1.3.3 1.7 0 .5 1.3 1.4 2.7 2.1 2.2 1 3.1.9 5-.4 1.3-.8 2.4-2.1 2.4-2.8.1-.8.5-.6 1.3.4.7.9 2.3 2.1 3.6 2.8 2 1.1 2.7 1 5.2-.9 3-2.1 3-2.1 5.5-.1 3 2.3 6.1 2 8.1-.9l1.5-2.1 1.5 2.1c1.1 1.5 1.9 1.8 2.6 1.1.7-.7.6-1.5-.3-2.6-.7-.8-.9-1.5-.4-1.5.4 0 .3-.5-.4-1.2-.8-.8-1.5-.8-2.9.3-1.5 1.1-1.5 1 .1-.9 1.7-2 1.7-2.2.3-1.6-1.3.5-1.6.2-1.1-.9.7-2-1.3-5.7-3.1-5.7-.7 0-1.5-.4-1.7-.9-.2-.6-1.1-.5-2.3.1zm-8.9 7.7c-.2 4.4-.9 5.7-2.5 4.7-1.3-.9-1.1-7.9.3-8.8 1.7-1.1 2.3 0 2.2 4.1zm12 .7c0 3.4-.4 4.4-1.5 4.2-1.5-.3-2.4-5.8-1.4-8.5 1.1-2.8 3 0 2.9 4.3zm-24.2-1.4c-.2 5.4-.3 5.8-1.7 5.8-.9 0-1.4-1.6-1.6-4.5-.2-3.8.1-4.5 1.6-4.5 1.4 0 1.8.7 1.7 3.2zM12.3 83.5c-1.4 1.5-1.4 6.5-.1 6.5.4 0 .8.7.8 1.5s.4 1.5.9 1.5c.4 0 .7-1.3.5-2.9-.4-3.8 2.3-6.5 3-2.9.8 4.5.5 6.8-1.3 7.8-1 .5-2.2.6-2.7.2-.5-.4 0 .3 1 1.5 1.7 2.1 2 2.1 4.8.7 1.6-.8 2.6-1.9 2.3-2.4-.3-.5-.1-1.1.5-1.5.5-.3 1 .1 1 .9 0 .9 1.1 2.3 2.4 3.1 2.2 1.5 2.7 1.5 5.6 0 1.7-.9 2.8-2 2.5-2.5-.3-.5-.1-1.1.5-1.5.5-.3 1 0 1 .8 0 3.2 6.1 5.5 8.6 3.2.6-.6 1.5-1.9 2.2-3 .9-1.6 1.1-1.7 1.2-.4 0 2.2 2.6 4.2 5.5 4.4 2.8.1 4-1.9 2.5-4.3-.6-1.1-.9-1.3-1-.4 0 .8-.8 1.2-1.7 1-1.4-.2-1.8-1.3-1.8-4.3 0-2.2.6-4.6 1.3-5.3.7-.8 1-1.8.7-2.2-.7-1.2-5 .4-5.1 1.9-.1.6-.2 1.4-.3 1.7 0 .4-1-.5-2.2-2-2.3-2.9-5.9-3.4-8.3-1.1-.8.8-2.1 1.5-2.9 1.5-.8 0-1.7-.7-2.1-1.5-.3-.8-1.7-1.5-3.1-1.5-3 0-6.7 3.4-5.9 5.5.4.8.1 1.5-.4 1.5-.6 0-.9-.9-.7-1.9.7-3.8-6.6-6.7-9.2-3.6zm17.4 7.8c-.5 4.7-3.2 4.8-3.2 0 0-2.1.4-4.4.9-5.2 1.3-2.1 2.8 1.2 2.3 5.2zm11.4 3c-1.6 1.6-2.4.2-2.5-4-.1-2.5.4-4 1.4-4.4 1.2-.5 1.6.3 1.8 3.4.2 2.2-.1 4.4-.7 5zM205 84.2l-2.1 2.3 2.2.3c1.3.2 2.5-.1 2.7-.7.2-.7 1.3-.6 3.2.4 2.2 1.1 2.9 1.2 3.3.2 1.6-4.1-5.9-6.1-9.3-2.5zM217.6 83.6c-.9.8-1.6 2-1.6 2.5 0 1.3 3.7 1.1 4.5-.2.5-.7 1.3-.5 2.4.5 2.5 2.3 4.7.6 3-2.3-1.6-2.5-6-2.8-8.3-.5zM229.7 83.8c-1 1-1.7 2.2-1.7 2.5 0 1.1 3.8.8 4.5-.3.4-.6 1.6-.4 3.1.6 1.3.9 2.5 1.4 2.5 1 .5-2.2.3-3.2-.8-4.4-1.7-1.8-5.7-1.5-7.6.6zM27 109.1c0 .5-.4.7-1 .4-.5-.3-1.5.3-2.2 1.5-.7 1.1-1.6 2-2.1 2-.4 0-.6-.4-.3-.8.3-.5-.1-.9-.9-.9-2 0-1.9.6.7 2.8 1.4 1.3 1.6 1.9.7 1.9-.8 0-1 .3-.4.8.6.4 1.1 1.8 1.3 3.2.7 5.3 6.8 6.4 10.3 1.9 1.5-2 1.9-2.1 1.9-.6 0 .9 1.1 2.2 2.4 2.8 3.6 1.7 7.3.4 8.4-2.8.6-1.6 1.1-2.1 1.1-1.1.1 2.5 3 4.9 5.4 4.5 4-.7 5.7-1.9 5.8-4.1 0-2.1 0-2.1.9-.1 1.3 3.3 3.9 5 5.2 3.7.8-.8.8-1.2.2-1.2-.6 0-1.1-.6-1.2-1.3-.4-2.9-1-6.2-1.2-6.5-.3-.3-.7-1.8-.9-3.5-.1-.9-.4-.9-1 .2-.7 1.1-1.3.9-3-.8-1.1-1.1-2.5-2.2-3.1-2.2-.5-.1-1.6-.2-2.2-.3-.7-.1-2.2.7-3.2 1.6-2.5 2.2-2.8 2.2-4.5 0-.9-1.3-2.1-1.7-4-1.4-3.2.6-6.3 3.1-5.4 4.5.3.6.1.7-.5.3-.7-.4-1.2-1.3-1.2-2s-1.1-1.8-2.5-2.4c-3.2-1.5-3.5-1.5-3.5-.1zm2.8 5.8c.2 1.3.1 3.4-.3 4.8-.8 3.4-3.3 1.4-2.9-2.4.1-1.6.2-3.4.3-4.1.2-2.2 2.6-.7 2.9 1.7zm12 1c.2 1.8.1 4-.3 4.9-.6 1.6-.7 1.6-1.9 0-.7-1-1.2-2.8-1-4 .1-1.3.3-2.9.3-3.6.2-2.7 2.6-.4 2.9 2.7zm12.6 1.2c-.2 3.6-1.8 5.7-2.9 3.9-1.1-1.7-1.3-8-.3-7.4.4.3.8 0 .8-.7 0-.8.4-.8 1.3-.1.7.6 1.2 2.5 1.1 4.3zM123.8 108.7c-1.6.4-4.8 8-4.4 10.5.1.7.7 2.3 1.4 3.5 1.6 3 6.7 2.8 9.1-.3l1.8-2.3 1.1 2.4c1.5 3.2 6.4 3.5 8.5.5 1.3-1.9 1.5-1.9 3.3-.2 3.7 3.2 8.4 2.7 10.1-1l1-2.3.7 2.2c1.3 4.2 8.9 4.2 10.2.1.6-2.1.7-2 2.2.5 1.2 1.9 2.5 2.7 4.4 2.7 2.9 0 7.1-3.7 6.1-5.3-.3-.6-.1-.7.6-.3.6.4.9 1.1.6 1.6-.3.5.5 1.8 1.7 3 1.3 1.1 2.4 1.6 2.6 1.1.2-.5.9-.8 1.6-.5.8.3 2.1-.2 2.9-1.1 1.5-1.4 1.8-1.5 4.1 0 1.5 1 2.7 1.2 3 .6.4-.5.2-1.2-.3-1.5-.5-.4-.8-3.5-.6-6.9.3-5.1.1-6.4-1-6.4-.8 0-1.7.9-2.1 1.9-.5 1.8-.6 1.8-2.2-.1-2.6-3.1-6.3-3.3-8.7-.6-1.8 2.2-2 2.3-3.5.5-2.9-3.3-7.4-3-9.3.6-.9 1.7-1.7 2.3-2.1 1.5-.4-.6-.4-1.1-.1-1.1 1.2 0-2.2-2.8-3.6-3-3.4-.5-4.9.2-6.3 2.7-.8 1.6-1.5 2.2-1.6 1.5-.1-4.3-7.2-5.9-10.1-2.3-2 2.4-2.9 2.7-2.9.8 0-2-4.1-3.6-6.7-2.6-1.2.4-2.6 1.6-3.2 2.6-.6 1-1.1 1.3-1.1.8 0-1.5-5.2-4.2-7.2-3.8zm2 4.4c-.2.3.2 1.2.8 2 .7.9.9 2.2.4 3.5-1 2.7-3 4-3.1 2.2-.1-.7-.3-2.4-.5-3.8-.4-3.2.3-5.3 1.7-4.8.6.2.9.6.7.9zM139 117c0 4.1-1.3 5.9-2.6 3.8-1.2-1.8-1.2-6.1-.1-7.5 1.5-2.1 2.7-.4 2.7 3.7zm12.4-.6c.2 1.4-.1 2.6-.6 2.6s-.7.4-.3.9c.3.5.1 1.2-.4 1.5-1.3.9-2.4-1.2-2.6-4.9-.3-5.3 3.3-5.5 3.9-.1zm11.7-2.7c.2 3.7-.3 6.8-1.4 7.5-.6.4-1.3.5-1.5.3-.8-.8-.7-7.1.1-8.3 1.3-1.7 2.7-1.5 2.8.5zm12-.5c0 .7.2 2 .3 2.8.2.8-.1 2.6-.6 3.9-.6 1.8-1.2 2.1-2 1.3-1.2-1.2-1.4-6.5-.3-8.2.9-1.4 2.5-1.3 2.6.2zm12.4 3.2c.1 2.7-.4 4-1.7 4.7-1.5.8-1.7.5-1.6-2.4.1-1.9-.2-3.9-.6-4.5-.6-1 1.1-2.2 2.8-1.8.5.1 1 1.9 1.1 4zM268.3 109.1c-2.8 1-2 4.3.8 3.4 1.2-.4 1.9-.1 2 .7 0 .7.2 2.8.4 4.5.3 3-.3 3.8-2.7 3.4-.5 0-.8.8-.8 1.9 0 1.4.7 2 2.3 2 2.8 0 4.7-1.7 4.8-4.5 0-1.4.2-1.6.6-.5 1.9 5.2 8 6.7 10.7 2.8l1.6-2.2 1.6 2.2c1 1.4 2.6 2.2 4.4 2.2 1.8 0 3.4-.8 4.4-2.2l1.6-2.2 1.6 2.2c2.6 3.8 7.7 2.4 8.1-2.3.1-1.8 0-1.8-1-.4-2.1 2.8-4.3.8-4.3-3.9.1-3.3.4-4.2 1.8-4.2 2.2 0 2.9-1.2 1.4-2.6-1.5-1.4-5.4-.1-6.2 2.1-.8 1.9-2.4 2-2.4.2 0-.8-1-1.8-2.2-2.4-2.8-1.2-7.8.2-7.8 2.2 0 .8-.5 1.7-1.2 2.1-.6.4-.9.3-.5-.2.3-.5-.1-1.8-.9-2.9-.8-1-1.4-1.6-1.4-1.2 0 .4-.9.3-1.9-.2-1.4-.8-2.5-.6-4.5 1-2.4 1.9-2.9 2-4.4.7-2.7-2.4-3.6-2.6-5.9-1.7zm15.3 6.4c.2 4.3-.6 6.4-2.2 5.8-2.4-.9-1.5-9.8.9-9 .6.2 1.2 1.6 1.3 3.2zm12.1.6c.2 4.5-.3 6-2 5.3-1.2-.4-1.6-4.4-.8-8.7.3-2.3 2.6.4 2.8 3.4zM137 135.1c0 .5-.4.7-1 .4-.5-.3-1.7-.2-2.6.3-1.5.8-1.4 1.1.3 2.3 1.5 1 2 2.6 2 5.9 0 7.7 2.3 10.4 4.1 5.1.7-2 .7-3.2-.1-4-.8-.8-.7-1.1.3-1.1s1.1-.3.3-1.1c-.7-.7-.8-2.1-.3-3.8.5-1.7.3-3-.6-3.9-1.6-1.5-2.4-1.5-2.4-.1zM27.4 136.2c-.3.4 0 .8.6.8s.9.4.5.9c-.3.5-.1 1.2.4 1.6.6.3.7 1.3.4 2.3-.3.9-.3 1.4.2 1 .4-.4.9-2.2 1.1-4.1.3-2.5 0-3.4-1.1-3.4-.9 0-1.8.4-2.1.9zM36.4 136.2c-.4.6 0 1.6.9 2.3 1.1.8 1.7 3.1 1.9 7.1.2 4.4.7 5.9 1.8 5.9.8 0 1.7-1.4 2.1-3.3.3-1.7.3-3.2-.2-3.2-.4 0-.4-1.2 0-2.8 1.2-4.8.3-7.2-2.9-7.2-1.6 0-3.2.5-3.6 1.2zM48.5 136.1c-.4.6.1 1.6 1.1 2.3 1.4 1 1.7 2.6 1.6 6.9 0 4 .3 5.7 1.3 6.1 2.6 1 3.4-4 2.6-15.2-.1-1.5-5.7-1.6-6.6-.1zM60.5 135.9c-.3.5.3 1.7 1.2 2.7 1.2 1.2 1.7 3.4 1.8 7.3 0 4.2.4 5.6 1.5 5.9 1.6.3 2.2-2.3 2.2-9.8 0-6.8 0-7-3.1-7-1.7 0-3.2.4-3.6.9zM113.2 137.9c-.6 1.6-.8 3.2-.5 3.5.4.3.2.6-.3.6-1.1 0-1.2 7-.1 8.7.4.7 1.4 1 2.2.7 1.1-.5 1.4-2.2 1.1-8-.4-8.5-.9-9.8-2.4-5.5zM121.7 135.7c-1.2 1.1-.8 3.3.6 3 .8-.1 1.2 1.5 1.3 5.3 0 6.2.8 8.2 2.8 7.4 1-.4 1.4-2.6 1.3-8.5 0-7.9 0-7.9-2.7-7.9-1.5 0-3 .3-3.3.7zM145.6 136.6c-.8 2.2-.8 2.4.8 2.4 1.4 0 2.8 6.7 1.5 7.2-.4.2-.1 1.4.6 2.8 1.4 2.5 1.4 2.5 1.5.2 0-1.2.4-2.2.8-2.2.5 0 1-2.7 1.1-6l.2-6h-2.9c-1.8 0-3.2.6-3.6 1.6zM158 136.1c0 .5-.4.7-1 .4-.6-.3-.7.1-.4 1 .4.9 1.3 1.4 2 1.1 1.1-.4 1.4.8 1.4 5.8 0 4.4.4 6.5 1.3 6.9 2 .8 3.7-.6 2.8-2.2-.5-.8-.5-2.6-.1-4.1.4-1.5.3-3.4-.2-4.3-.6-1.1-.5-1.7.1-1.7.5 0 .7-.9.4-2-.4-1.4-1.4-2-3.4-2-1.6 0-2.9.5-2.9 1.1zM169.5 136c-.8 1.3.4 3.2 1.6 2.5 1-.7 1.1 0 1.1 6.5-.1 5.5 1 7.9 3 6.3 1.1-.9 1.6-10 .9-15.6-.1-1.1-5.9-.9-6.6.3zM181.6 135.9c-.4.6.2 1.9 1.2 2.9 1.4 1.4 1.8 3.1 1.6 7-.1 3.4.2 5.2 1.1 5.6 2.3.8 3.1-1.6 3.1-8.9l-.1-7-3.2-.3c-1.7-.2-3.4.1-3.7.7zM192.6 136.6c-.3.8-.2 1.2.4.9.6-.3 1-.1 1 .6 0 1 .3 1 1.1.2 1.1-1.1.5-3.3-1.1-3.3-.4 0-1.1.7-1.4 1.6zM265.7 135.6c-.4.4.1 1.6 1 2.6 1.2 1.3 1.8 3.7 1.8 7.4.1 5.9.5 6.7 2.6 5.9 1.1-.4 1.5-2.5 1.4-8.3v-7.7l-3-.3c-1.7-.2-3.4 0-3.8.4zM277.7 135.7c-.4.3.1 1.5 1 2.6 1.2 1.2 1.8 3.7 1.9 6.9.1 5.2 1.8 8.3 3.3 6 .6-1 .8-12.4.2-15.5-.1-.9-5.5-.9-6.4 0zM289.6 136.6c-.3.8-.2 1.3.3 1 1.4-.9 2.9 3.7 2.7 7.9-.3 4.3.8 6.7 2.8 5.9.9-.3 1.3-3 1.3-8.4v-8h-3.2c-2.1 0-3.5.6-3.9 1.6zM302.3 135.7c-.8.3-.5 1.2 1 2.7 2.4 2.5 4.8 1.5 3.9-1.6-.4-1.7-2.4-2.2-4.9-1.1zM257.5 145.7c-.8 1.7-.9 3.1-.6 5.1.1 1 3.1 1.2 3.2.3.5-3.8.4-5.3-.6-6.1-.9-.8-1.5-.5-2 .7zM50.2 162.4c-1.2.6-2.5 2-2.9 3.1-.6 1.9-.6 1.9-1.6-.3-1.1-2.4-4.7-3.8-7.3-2.8-2.1.8-1.2 3.1 1.2 3.1 1.7 0 1.9.8 2 6 0 6.1 1.3 7.4 3.8 3.9.9-1.2 1.4-1.1 2.9.9s2.3 2.3 5 1.8c1.8-.4 3.6-1.6 4.3-2.9l1.1-2.2 1.3 2.5c2 3.8 9.8 3.1 9.8-.8 0-1.5 1.2-2.1 1.2-.6.1 2.1 4.4 4.9 6.7 4.3 1.4-.4 1.9-1.2 1.6-2.4-.3-1-1.1-1.6-1.8-1.4-.7.3-1.6.1-1.9-.5-1-1.6-1.4-7.1-.5-7.1.5 0 .9-.9.9-2 0-2.7-3.7-2.7-4.5 0-.4 1.1-1.1 1.8-1.6 1.4-.5-.3-.7-.9-.4-1.4.7-1.1-2.7-3-5.3-3-1 0-2.7.9-3.8 2.1-1.5 1.7-2 1.8-2.9.6-1.8-2.5-4.8-3.4-7.3-2.3zm3.9 6.2c.7 3.8-.7 6.9-2.6 5.4-.7-.6-1.2-1.9-1-2.8.2-.9.4-2.8.4-4 .1-3.3 2.5-2.2 3.2 1.4zm11.1-3.1c1 .4 1.3 1.9 1.1 4.7-.4 4.8-.8 5.5-2.6 4-1.1-.9-1.3-9.2-.2-9.2.2 0 1 .2 1.7.5zM109.5 163.2c-1.1 1.1-2 2.5-2 3.1 0 .7-.9 1.1-1.9.9-1.3-.2-1.7.1-1.3 1.1.3.8.2 1.8-.3 2.3-1.3 1.5-2.3 7.4-1.2 7.4.6 0 2-1.2 3.2-2.8 1.2-1.5 1.9-2.2 1.7-1.7-.8 1.7 1.6 4.1 4.6 4.7 2.1.4 3.2 0 4.7-2 1.1-1.4 2.3-2.2 2.7-1.9.3.4.2.7-.3.7s.4.9 2 1.9c3.4 2.3 8.1 1.2 9.2-2.2.6-2 .7-2 2 .5 2.7 5.3 7.7 4.1 9.4-2.2 1.4-5.3.6-9.2-2.4-10.6-2.7-1.3-7.6.7-7.6 3 0 .9-1.2.3-3.1-1.5-2.6-2.5-3.3-2.7-5.5-1.7-1.4.7-3.2 2.3-4 3.7-.9 1.4-1.3 1.9-1 1 .5-1.8-3-5.3-5.4-5.5-.8 0-2.4.8-3.5 1.8zm5.3 5.6c.1 1.6-.2 4-.7 5.3-.5 1.3-1 1.8-1 1.1-.1-.7-.5-1.1-1-.8-1.2.8-.9-7.7.3-8.6 1.5-1 2.1-.2 2.4 3zm11.8-2.4c.8.8 1 1.7.5 2-.4.3-.6 1.6-.4 3 .5 2.3-1.2 4.4-2.5 3.2-.7-.8-1.1-7.8-.5-8.9.6-1 1.3-.9 2.9.7zm12.2 1.1c.6 1.3.7 2.7.3 3-.5.3-.7 1.4-.4 2.5.6 2.2-.9 2.7-2.4.7-.8-1.1-.9-3.4-.5-7.5.3-2 1.8-1.4 3 1.3zM159.4 162.3c-2.7 1.5-3.8 3.6-3.9 7.9-.2 4.6 2.3 8 5.8 8 3 0 6-1.9 5.1-3.3-.3-.5.2-.6 1-.3.9.3 1.6.9 1.6 1.3s1 1.2 2.3 1.8c2.6 1.2 6.2.1 7-2.1.4-.9 1.1-1.6 1.7-1.6.6 0 .9.4.5.9-.8 1.3 3.5 3.6 6 3.2 1.1-.2 2.5-.7 3.2-1.3.9-.7 2.1-.4 4 1 3 2.1 5.4 1.7 8-1.6 1.1-1.4 1.5-1.3 3.3.8 1.1 1.3 2 1.9 2 1.4s.4-.4.8.3c.6.9 1.6.7 4-.7 1.8-1.1 3-2.5 2.7-3-.3-.6-.1-1 .4-1 .6 0 1.1.6 1.1 1.2.1 1.9 4.7 5 5.5 3.8.4-.6 1-.8 1.4-.6.4.3 1.8-.4 3-1.5l2.3-2.1 1.4 2.1c1.9 2.7 5.8 2.7 8.2.1l1.9-2 1.8 2c2.6 2.9 8.5 2.5 8.5-.6 0-1.9.7-1.8 3.2.6 1.2 1.1 3.1 2 4.3 2 2.9 0 6.3-3 5.9-5.3-.1-.9.1-1.5.6-1.2.5.3.7 1.3.5 2.3-.2 1.8 2.9 4.1 5.7 4.2.9 0 2.9-1.2 4.3-2.7 1.7-1.9 2.5-2.3 2.5-1.3.1 1.1.7.8 2-.9 1.1-1.2 1.7-2.7 1.4-3.3-1.1-1.7.5-5.8 2-5.2.8.3 1.3 1.1 1 1.7-.2.7 0 1.8.5 2.6.8 1.2 1.1 1.2 2.5-.1.8-.9 1.2-1.9.8-2.3-.4-.5.1-.5 1.1-.2 1 .4 1.6.3 1.2-.2-.3-.5.4-1.2 1.5-1.6 1.1-.3 2-1.3 2-2.1 0-1.8-.2-1.8-3 .6-2.1 1.8-2.5 1.9-3.2.5-.5-.8-1.6-1.5-2.4-1.5-.8 0-1.3-.4-1-.9 1.2-1.9-4 .3-6 2.6-1.8 1.9-2.3 2.1-2.8.8-1.3-3.6-7.7-3.5-9.9.2-.7 1.1-1.2 1-2.5-.6-1.6-1.8-3.8-2.5-6.9-2.2-.7 0-1.9 1.3-2.7 2.8-1.3 2.4-2.2 1.9-1.7-.9.1-1-6.1-2.6-7.7-2-.7.2-1.9 1.6-2.7 3.1-.8 1.4-1.4 2-1.5 1.2 0-.7-.9-2.2-2-3.1-2.6-2.2-5.7-1.5-8.8 1.9-1.2 1.4-2 1.9-1.7 1 1.3-3.6-5.4-5.6-9-2.7-2.3 1.8-2.8 1.8-3.8.5-2-2.4-5.5-2.7-8.2-.5-1.4 1.1-2.2 2.4-1.9 3 .5.7.2.8-.5.4-.7-.5-1-1-.7-1.3.3-.3-.1-1.2-.9-2-2.1-2.1-7.3-2-8.9.2-1.1 1.6-1.4 1.6-2.2.3-1.5-2.5-4.9-3.9-6.2-2.6-.7.7-1.2.8-1.2.2 0-.5-.9.4-2 2.1-1.5 2.2-2 2.5-2 1.2 0-2.3-6.1-5.1-7.2-3.4-.4.7-.8.8-.8.4s-.6-.2-1.4.5c-.8.7-1.2 1.6-1 2 .2.4 0 .9-.5 1.2-.5.4-1.2-.2-1.5-1.2-.9-2.7-4.7-4.3-7.2-2.9zm3.1 3.6c-.3.5-.1 1.2.4 1.6.6.3.7 1.5.2 2.8-.4 1.2-.6 2.8-.4 3.4.3.7-.2 1.3-1.1 1.3-1.5 0-1.8-.8-1.8-5s.3-5 1.8-5c.8 0 1.3.4.9.9zm12.2.3c1.2 2.1 1 7.3-.4 8.7-.7.6-1.3.8-1.4.4 0-.4-.2-1.5-.4-2.3-1.2-4.9-1.3-6-.4-6 .6 0 .7-.5.4-1-.3-.6-.2-1 .4-1 .5 0 1.3.6 1.8 1.2zm12.4.8c.3 6.3.2 7.4-.8 7.7-1.6.6-3.2-4.8-2.2-7.5s2.9-2.9 3-.2zm11.7 2.9c.5 4.6-.4 6.7-2.2 5.2-.8-.7-1.3-2.7-1.1-4.9.3-4.6.3-4.4 1.8-4 .6.3 1.3 1.9 1.5 3.7zM211 168c.6 1.1.7 2 .2 2-.5 0-.7 1.1-.5 2.4.3 1.5-.1 2.5-1.1 2.9-1.7.7-1.7.8-2-4.3-.4-5.4 1.3-6.9 3.4-3zm12.1-.5c.1.8.1 2.4.1 3.5 0 3.6-.2 4-2.1 4-1.5 0-1.8-.6-1.5-3.3.2-1.7.6-3.8.9-4.5.6-1.7 2.5-1.5 2.6.3zm12 0c.1.8.2 2.5.3 3.7.3 2.7-1.2 5-2.5 4.2-.5-.3-.7-1-.4-1.5.4-.5.2-.9-.4-.9-.9 0-.6-4.4.5-6.2.8-1.3 2.4-.9 2.5.7zm11.7.2c1.5 2.8-.1 9.4-1.7 7.7-.9-.8-1.5-5.1-1.2-8.2.1-1.8 1.9-1.5 2.9.5zm12.4 0c0 1 .2 2.5.3 3.3.2 2.3-1.6 5.3-2.6 4.3-1.1-1.1-1.5-6.5-.5-8.1 1.1-1.8 2.6-1.5 2.8.5zm11.9-.2c.1.8.2 2.6.2 4 0 3.8-.2 4.2-1.6 4.2-1.4 0-2.3-7-1.1-8.8.8-1.4 2.4-1.1 2.5.6zM49.3 189.5c-1.5 1.1-1.4 1.4.4 3.2 1.6 1.6 2 3 1.7 7.1-.3 2.8-.1 5.3.4 5.6 2.1 1.3 3.2-1.5 3.4-8.6.3-7.2.2-7.7-1.9-8.1-1.3-.2-3 .1-4 .8zM61.6 189.2c-.8.5-1.3 1.5-1 2.3.4.8 1 1.2 1.5.9 1-.6 1.1.6 1.1 7.8 0 4.6 1.9 7.1 3.5 4.6 1.1-1.9 1-13.8-.1-13.8-.6 0-.5-.4.2-.9 1.9-1.2-3.1-2.1-5.2-.9zM73.6 189.2c.3.4 0 .8-.5.8-1.8 0-1.2 1.8.8 2.5 1.5.5 1.8 1.4 1.6 6-.2 3.6.1 5.8 1 6.5 2.1 1.7 2.9-.7 3-8.7v-7.1l-3.2-.4c-1.7-.2-2.9 0-2.7.4zM101 188.7c-4.4 1.3-4.3 1.2-2.9 3 .8.9 1.5 3.9 1.5 6.7.3 8 .2 7.8 2.3 6.7 1.6-.9 1.9-2.1 1.7-8.5-.2-8.1-.3-8.5-2.6-7.9zM121.2 189.6c-.8.9-.8 1.5.2 2.3.7.6 1.5.9 1.8.6.2-.3.4 1.9.4 4.8-.1 6.1.8 8.8 2.9 8.1.8-.4 1.2-1 .9-1.5-.3-.5 0-.9.6-.9s.8-.5.4-1.2-.7-3.8-.7-6.9c.1-5.5-.1-5.7-2.6-6.1-1.5-.2-3.3.1-3.9.8zM172 188.8c-.8.3-2.1 1.1-2.8 1.9-1.1 1.1-1.1 1.3.2 1.3 2.2 0 3.4 3 2.9 6.6-.6 3.9 1.3 8 3 6.5 1-.7 1.5-10.7.8-15.2-.2-1.1-2.5-1.7-4.1-1.1zM108.6 190.5c-.3.9 0 1.5.9 1.5 1.7 0 1.7.1 1.9 6.7.2 6.2 1.1 7.7 3.6 6.1 1-.7 1.6-1.6 1.3-2.2-.4-.5-.6-3.8-.6-7.3V189h-3.2c-2 0-3.5.6-3.9 1.5zM133 190.5c0 .9.5 1.5 1.1 1.3.6-.2 1.1-.8 1.1-1.3s-.5-1.1-1.1-1.3c-.6-.2-1.1.4-1.1 1.3zM157 190.7c0 .7.8 1.3 1.7 1.3.9 0 1.4.3 1 .6-.3.3-.2 1.7.3 3 .6 1.5.6 2.4 0 2.4s-.6.9-.1 2.2c.9 2.5 1.1 3.2 1.1 4.8 0 .7.6.7 1.8.1 1.4-.7 1.7-2.1 1.5-7.5 0-3.6-.2-7.1-.2-7.6-.1-1.6-7.1-.8-7.1.7zM180.9 190.7c-.8.9-.9 1.4-.3 1 2-1.2 3.7 2.3 3.8 7.8.1 5.8 1 7.5 2.9 5.6.7-.7 1.2-4.1 1.2-8.6V189h-3.1c-1.8 0-3.8.8-4.5 1.7zM193 190.4c0 .8.7 1.7 1.6 2 1.1.4 1.5.2 1.1-.8-.3-.8-.1-1.7.6-2 .7-.2.2-.5-1-.5-1.3-.1-2.3.5-2.3 1.3zM85.7 216.5c-.9.7-1.7 1.7-1.7 2.3 0 .6-.6 1.4-1.2 1.8-.7.4-1 .4-.6 0 1.2-1.3-2.6-4.6-5.3-4.6-2.4 0-5.8 2.5-5.7 4.3 0 .5-.4 1.2-.8 1.5-.4.4-.4.2-.1-.4.9-1.7-3.1-5.4-5.8-5.4-2.5 0-5.5 2.3-5.5 4.3 0 .7-.5.4-1.1-.6-.5-.9-1.5-1.7-2.2-1.7-.8 0-.8.3.1.9.7.4 1.5 1.4 1.6 2.2 1.3 6.9 2.8 9.8 5.5 10.7 2.4.9 3.4.7 5-.7 1.2-1 2.1-2.5 2.2-3.2 0-.8.5-.4 1.1.7 2.3 4.8 6.9 4.7 11.2 0 1.1-1.3 1.7-1.5 1.4-.6-.3.9.6 2.2 2 3.2 2.3 1.5 2.9 1.5 5.4.2 1.5-.8 2.8-2.1 2.8-2.8 0-.9 1.1-.3 2.9 1.4 3.1 3.2 6.2 3.1 8.5-.1 1.3-1.9 1.3-1.8 3.1.1 1.1 1.2 3.1 2 5.1 2 2.8 0 3.5-.4 4-2.6.6-2.2.8-2.4 1.6-1 1.3 2.4 3.8 2 3.9-.7.1-1.2.2-3.4.3-4.9 0-1.6.5-2.8 1-2.7.5 0 1.2-.5 1.7-1.2 2-3.3-3.2-4-5.5-.7-.8 1.2-1.2 2.6-.9 3.1.4.6.1.7-.6.3-.7-.5-1-1.1-.7-1.4 1.2-1.1-2.8-4.2-5.4-4.2-3.1 0-6.6 3.3-5.4 5.1.4.8.3 1-.4.5-.7-.4-1.2-1.4-1.2-2.1 0-.8-1.3-2.1-2.9-2.9-2.7-1.4-3.1-1.4-5.5.5-1.4 1.1-2.4 2.4-2.1 2.9.3.5 0 1.2-.7 1.6-.7.4-1 .4-.6-.1 2.4-2.6-5.4-7.3-8.5-5zm-19.3 8.1c-.4 4.4-.9 5.1-2.7 3.5-1.3-1-1.3-4.1-.1-8 .9-2.7 3 .8 2.8 4.5zm11.9-2.9c.6 3.1-.7 7.3-2.3 7.3-1.1 0-1.4-8.3-.3-9.3 1.2-1.3 2.1-.7 2.6 2zm11.5-1.5c.9 1.2.7 7.6-.2 8.6-1.4 1.3-2.7-1.6-2.5-5.4.3-4.5.9-5.3 2.7-3.2zm13 3.2c0 1.8-.4 3.9-.9 4.7-1.9 2.9-3.8-3.5-2.3-7.5 1-2.5 3.2-.6 3.2 2.8zm11.9-.8c.2 4-.6 6.6-2 6.1-1.2-.4-1.9-7.4-1-9 1-1.7 2.8.1 3 2.9zM172 216.1c0 .6-.4.8-1 .4-.5-.3-1.6.7-2.4 2.2-.8 1.5-1.5 2.3-1.6 1.6-.1-3.6-6-5.5-9.4-3-2 1.5-2.8 8.1-1.3 11.3 2 4.5 7.6 4.8 10.1.6.8-1.4 1-1.4 2 0 2.2 3 4.9 3.7 7.8 2.2 1.5-.8 2.8-1.9 2.8-2.4 0-.6.5-1 1.1-1 .5 0 .8.4.4 1-.3.5.8 1.6 2.4 2.5 1.9.9 3.2 1.1 3.6.5.4-.6 1-.8 1.5-.5.5.3 1.3-.2 1.8-1.2.9-1.4 1.3-1.5 2.6-.4 1.9 1.6 5.1.7 4-1.1-1.2-1.9-1.3-9.8-.1-10.5.5-.3.4-.9-.4-1.4-.8-.5-2-.2-3.1.8-1.7 1.5-1.9 1.5-3.5-.4-1.3-1.4-2.4-1.8-3.8-1.3-1.1.4-2.3.6-2.7.3-.4-.2-1.2.6-1.9 1.9-1.1 2-1.3 2-2.4.5-1.5-2.1-6.5-4.1-6.5-2.6zm-9.2 7.4c.3 3.5-1 6.6-2.3 5.3-.6-.6-.9-4.4-.6-8.1.2-3.4 2.6-1.1 2.9 2.8zm12.2-2.1c.9 2.4.6 6.3-.4 7.4-1.1 1-3.6-2.1-2.7-3.2.6-.7.6-1.8.1-2.5-.9-1.6-.3-4.1 1.1-4.1.5 0 1.4 1.1 1.9 2.4zm12 0c.9 2.4.6 6.3-.5 7.4-.3.3-1.3-.2-2.2-1.1-1-.9-1.3-1.7-.7-1.7.6 0 .8-1.5.6-3.5-.5-4.1 1.4-4.8 2.8-1.1zM64.8 243.2c-.3.7.1 2.4.8 3.7.7 1.4 1.1 2.8.8 3.3-.3.4-.1.8.4.8.6 0 .8.9.5 2-.4 1.5 0 2 1.4 2 1.1 0 2.8.9 3.8 2s2.8 2 4.1 2c2.4 0 5.4-2.4 5.4-4.2 0-.6.9.1 2.1 1.6 1.2 1.5 3 2.6 4.4 2.6 2.3 0 5.5-2.3 5.5-4 0-.5 1.1.2 2.5 1.5 3.1 3.2 5.8 3.1 9.1-.3 1.5-1.5 2.4-2.2 2-1.5-.8 1.5 3.5 4.6 4.8 3.3.6-.6.5-1.4-.1-2.2-1.2-1.5-1.2-8.2 0-9.5.5-.4 1.5 0 2.2 1 1.3 1.8 1.4 1.7 2-.3 1.5-4.7-3.9-6.3-7.7-2.3l-2.1 2.2-1.9-2.4c-2.9-3.8-9.7-1.4-9.9 3.5-.1 2.3-.2 2.3-.8-.5-.3-1.7-1.7-3.5-3.2-4.4-2.2-1.2-2.8-1.2-5.3.4-2.1 1.4-2.6 2.4-2.2 4.4.3 1.9 0 1.6-1.2-1.1-2.5-5.5-9.1-5.8-10.9-.3-.6 1.9-.6 1.9-1.4-.2-1-2.7-4.6-4.8-5.1-3.1zm25.7 7.5c-.1 1.6-.5 3.5-.9 4.2-1.9 3-3.5-4.3-1.9-8.5.6-1.5.7-1.5 1.8-.1.6.9 1.1 2.9 1 4.4zm-12.4-3c.4 4.7.4 5.9-.5 7-.4.7-1.2 1-1.7.7-1-.6-1.2-7.7-.2-8.7 1.2-1.2 2.3-.7 2.4 1zm24.6 1.8c.2 3-1.3 6.8-2.5 6.1-1-.6-1.5-7.4-.6-8.7 1.1-1.8 2.9-.3 3.1 2.6zM159.4 243c-1.2.5-2.5 1.3-2.8 1.9-1.3 2.1-1.3 7.8 0 10.6 1.9 4 6.6 4.2 9.4.5 1.5-1.9 2-2.1 2-.9 0 1.6 1.8 2.8 5 3.5 2.4.5 5-.6 5-2.2 0-1.8 2.1-1.4 3.7.8 1.6 2.1 7.2 1.8 8.5-.6.9-1.6 1.1-1.6 2.8.4 2.3 2.7 3.1 1.4 2.6-4.1-.2-2.4 0-5.1.4-5.9.5-.9.5-2.2 0-3-.7-1.2-1.2-1.2-2.7.2-1.7 1.5-2 1.5-4.1-.2-2.7-2.2-6.1-1.8-8.2 1-1.5 1.9-1.5 2-2.7.1-1.9-3-6.2-3.3-8.8-.5-2.5 2.7-4 3.1-3.2 1 .3-.8-.5-1.8-1.9-2.5-1.4-.6-2.6-1.1-2.7-1-.1 0-1.2.4-2.3.9zm3.8 6.5c.2 1.9 0 3.5-.5 3.5-.4 0-.6.4-.3.9s0 1.1-.8 1.4c-1.7.7-2.6-4-1.4-7.2 1.1-3.2 2.5-2.5 3 1.4zm11.5-2.3c.8 1.1.9 3.1.4 6.7 0 .5-.8 1.2-1.7 1.5-1.3.5-1.5.2-1.1-1.4.3-1.1.2-2.2-.3-2.5-.9-.6-.1-5.5 1-5.5.4 0 1.2.6 1.7 1.2zm12.5 1.7c.5 3.5-.9 7.8-2.1 6.5-1.1-1-1.4-2.8-1.2-6.7.1-3.6 2.8-3.5 3.3.2z"/></svg>